<svg xmlns="http://www.w3.org/2000/svg" width="256" height="256"><circle cx="128" cy="128" r="119.428" fill="#fff" stroke="#000" stroke-width="16.502"/><path d="M161.405 210.657L138.2 227.233 34.412 153.79V91.316l23.204-16.32 37.233 26.01V48.73l23.206-16.576 23.46 16.576v52.276l16.832-11.731 19.892 14.027 20.144-14.281 23.46 16.576v62.477l-23.46 16.32-20.144-14.282-16.832 11.987zM40.79 91.314L57.62 103.3l17.086-11.986L57.62 79.328zm20.144 14.28l16.83 11.986 17.086-11.985-16.83-11.987zm19.89 14.281l17.087 11.985 17.086-11.985L97.91 107.89zm37.231-83.132L100.969 48.73l17.086 11.982 17.084-11.982zm0 28.56l-17.086 11.985 17.086 11.985 16.83-12.24zm0 28.305l-17.086 11.987 17.086 11.985 16.83-11.985zm-17.084 40.547l17.086 11.73 16.83-11.985-16.83-11.73zm20.144 14.025l17.084 11.985 16.831-11.985-16.831-11.984zm37.23-54.572l-17.086 11.987 16.832 11.985 17.085-11.985zm40.038 0l-16.834 11.987 16.834 11.985 17.083-11.985z"/></svg>